<mxfile host="65bd71144e">
    <diagram name="Page-1" id="Ox1_kNVSk4cwcJEtYetx">
        <mxGraphModel dx="418" dy="607" grid="1" gridSize="10" guides="1" tooltips="1" connect="1" arrows="1" fold="1" page="1" pageScale="1" pageWidth="850" pageHeight="1100" math="0" shadow="0">
            <root>
                <mxCell id="0"/>
                <mxCell id="1" parent="0"/>
                <mxCell id="J-dgUN1kn7ifCtPCbYIG-3" value="" style="edgeStyle=orthogonalEdgeStyle;rounded=0;orthogonalLoop=1;jettySize=auto;html=1;entryX=0.5;entryY=0;entryDx=0;entryDy=0;" parent="1" source="J-dgUN1kn7ifCtPCbYIG-1" target="J-dgUN1kn7ifCtPCbYIG-13" edge="1">
                    <mxGeometry relative="1" as="geometry"/>
                </mxCell>
                <mxCell id="J-dgUN1kn7ifCtPCbYIG-1" value="Start" style="rounded=1;whiteSpace=wrap;html=1;" parent="1" vertex="1">
                    <mxGeometry x="45" y="30" width="80" height="40" as="geometry"/>
                </mxCell>
                <mxCell id="J-dgUN1kn7ifCtPCbYIG-5" value="" style="edgeStyle=orthogonalEdgeStyle;rounded=0;orthogonalLoop=1;jettySize=auto;html=1;entryX=0.5;entryY=0;entryDx=0;entryDy=0;" parent="1" source="J-dgUN1kn7ifCtPCbYIG-2" target="J-dgUN1kn7ifCtPCbYIG-6" edge="1">
                    <mxGeometry relative="1" as="geometry">
                        <mxPoint x="85" y="270" as="targetPoint"/>
                    </mxGeometry>
                </mxCell>
                <mxCell id="J-dgUN1kn7ifCtPCbYIG-2" value="&lt;div&gt;Display &quot;Enter Password&quot;&lt;/div&gt;&lt;div&gt;&lt;br&gt;&lt;/div&gt;&lt;div&gt;Input= Password&lt;br&gt;&lt;/div&gt;" style="shape=parallelogram;perimeter=parallelogramPerimeter;whiteSpace=wrap;html=1;fixedSize=1;" parent="1" vertex="1">
                    <mxGeometry x="20" y="160" width="130" height="70" as="geometry"/>
                </mxCell>
                <mxCell id="J-dgUN1kn7ifCtPCbYIG-8" value="" style="edgeStyle=orthogonalEdgeStyle;rounded=0;orthogonalLoop=1;jettySize=auto;html=1;" parent="1" source="J-dgUN1kn7ifCtPCbYIG-6" target="J-dgUN1kn7ifCtPCbYIG-7" edge="1">
                    <mxGeometry relative="1" as="geometry">
                        <mxPoint x="85" y="420" as="targetPoint"/>
                    </mxGeometry>
                </mxCell>
                <mxCell id="J-dgUN1kn7ifCtPCbYIG-9" value="True" style="edgeLabel;html=1;align=center;verticalAlign=middle;resizable=0;points=[];" parent="J-dgUN1kn7ifCtPCbYIG-8" vertex="1" connectable="0">
                    <mxGeometry x="-0.2" relative="1" as="geometry">
                        <mxPoint as="offset"/>
                    </mxGeometry>
                </mxCell>
                <mxCell id="J-dgUN1kn7ifCtPCbYIG-11" value="" style="edgeStyle=orthogonalEdgeStyle;rounded=0;orthogonalLoop=1;jettySize=auto;html=1;" parent="1" source="J-dgUN1kn7ifCtPCbYIG-6" target="J-dgUN1kn7ifCtPCbYIG-10" edge="1">
                    <mxGeometry relative="1" as="geometry"/>
                </mxCell>
                <mxCell id="J-dgUN1kn7ifCtPCbYIG-12" value="False" style="edgeLabel;html=1;align=center;verticalAlign=middle;resizable=0;points=[];" parent="J-dgUN1kn7ifCtPCbYIG-11" vertex="1" connectable="0">
                    <mxGeometry x="-0.3333" relative="1" as="geometry">
                        <mxPoint as="offset"/>
                    </mxGeometry>
                </mxCell>
                <mxCell id="J-dgUN1kn7ifCtPCbYIG-6" value="Check against predefined password" style="rhombus;whiteSpace=wrap;html=1;" parent="1" vertex="1">
                    <mxGeometry x="30" y="260" width="110" height="110" as="geometry"/>
                </mxCell>
                <mxCell id="J-dgUN1kn7ifCtPCbYIG-26" value="" style="edgeStyle=orthogonalEdgeStyle;rounded=0;orthogonalLoop=1;jettySize=auto;html=1;exitX=0.5;exitY=1;exitDx=0;exitDy=0;" parent="1" source="J-dgUN1kn7ifCtPCbYIG-7" target="J-dgUN1kn7ifCtPCbYIG-25" edge="1">
                    <mxGeometry relative="1" as="geometry">
                        <mxPoint x="85" y="480" as="sourcePoint"/>
                    </mxGeometry>
                </mxCell>
                <mxCell id="J-dgUN1kn7ifCtPCbYIG-7" value="Display &quot;Password correct&quot;" style="shape=parallelogram;perimeter=parallelogramPerimeter;whiteSpace=wrap;html=1;fixedSize=1;" parent="1" vertex="1">
                    <mxGeometry x="15" y="420" width="140" height="60" as="geometry"/>
                </mxCell>
                <mxCell id="J-dgUN1kn7ifCtPCbYIG-16" value="" style="edgeStyle=orthogonalEdgeStyle;rounded=0;orthogonalLoop=1;jettySize=auto;html=1;entryX=0;entryY=0.5;entryDx=0;entryDy=0;" parent="1" source="J-dgUN1kn7ifCtPCbYIG-10" target="J-dgUN1kn7ifCtPCbYIG-19" edge="1">
                    <mxGeometry relative="1" as="geometry"/>
                </mxCell>
                <mxCell id="J-dgUN1kn7ifCtPCbYIG-10" value="N=N+1" style="whiteSpace=wrap;html=1;" parent="1" vertex="1">
                    <mxGeometry x="205" y="292.5" width="70" height="45" as="geometry"/>
                </mxCell>
                <mxCell id="J-dgUN1kn7ifCtPCbYIG-14" value="" style="edgeStyle=orthogonalEdgeStyle;rounded=0;orthogonalLoop=1;jettySize=auto;html=1;" parent="1" source="J-dgUN1kn7ifCtPCbYIG-13" target="J-dgUN1kn7ifCtPCbYIG-2" edge="1">
                    <mxGeometry relative="1" as="geometry"/>
                </mxCell>
                <mxCell id="J-dgUN1kn7ifCtPCbYIG-13" value="N=0" style="whiteSpace=wrap;html=1;" parent="1" vertex="1">
                    <mxGeometry x="50" y="100" width="70" height="30" as="geometry"/>
                </mxCell>
                <mxCell id="J-dgUN1kn7ifCtPCbYIG-18" value="" style="edgeStyle=orthogonalEdgeStyle;rounded=0;orthogonalLoop=1;jettySize=auto;html=1;entryX=1;entryY=0.5;entryDx=0;entryDy=0;" parent="1" source="J-dgUN1kn7ifCtPCbYIG-15" target="J-dgUN1kn7ifCtPCbYIG-2" edge="1">
                    <mxGeometry relative="1" as="geometry">
                        <mxPoint x="325" y="90" as="targetPoint"/>
                    </mxGeometry>
                </mxCell>
                <mxCell id="J-dgUN1kn7ifCtPCbYIG-15" value="Display &quot;Incorrect Password, (3-N) tries remaining&quot;" style="shape=parallelogram;perimeter=parallelogramPerimeter;whiteSpace=wrap;html=1;fixedSize=1;" parent="1" vertex="1">
                    <mxGeometry x="295" y="170" width="145" height="70" as="geometry"/>
                </mxCell>
                <mxCell id="J-dgUN1kn7ifCtPCbYIG-20" value="" style="edgeStyle=orthogonalEdgeStyle;rounded=0;orthogonalLoop=1;jettySize=auto;html=1;" parent="1" source="J-dgUN1kn7ifCtPCbYIG-19" target="J-dgUN1kn7ifCtPCbYIG-15" edge="1">
                    <mxGeometry relative="1" as="geometry"/>
                </mxCell>
                <mxCell id="J-dgUN1kn7ifCtPCbYIG-21" value="True" style="edgeLabel;html=1;align=center;verticalAlign=middle;resizable=0;points=[];" parent="J-dgUN1kn7ifCtPCbYIG-20" vertex="1" connectable="0">
                    <mxGeometry x="0.4909" y="4" relative="1" as="geometry">
                        <mxPoint x="1" as="offset"/>
                    </mxGeometry>
                </mxCell>
                <mxCell id="J-dgUN1kn7ifCtPCbYIG-23" value="" style="edgeStyle=orthogonalEdgeStyle;rounded=0;orthogonalLoop=1;jettySize=auto;html=1;" parent="1" source="J-dgUN1kn7ifCtPCbYIG-19" target="J-dgUN1kn7ifCtPCbYIG-22" edge="1">
                    <mxGeometry relative="1" as="geometry"/>
                </mxCell>
                <mxCell id="J-dgUN1kn7ifCtPCbYIG-24" value="False" style="edgeLabel;html=1;align=center;verticalAlign=middle;resizable=0;points=[];" parent="J-dgUN1kn7ifCtPCbYIG-23" vertex="1" connectable="0">
                    <mxGeometry x="-0.3548" y="-1" relative="1" as="geometry">
                        <mxPoint as="offset"/>
                    </mxGeometry>
                </mxCell>
                <mxCell id="J-dgUN1kn7ifCtPCbYIG-19" value="N&amp;lt;4" style="rhombus;whiteSpace=wrap;html=1;" parent="1" vertex="1">
                    <mxGeometry x="327.5" y="275" width="80" height="80" as="geometry"/>
                </mxCell>
                <mxCell id="J-dgUN1kn7ifCtPCbYIG-28" value="" style="edgeStyle=orthogonalEdgeStyle;rounded=0;orthogonalLoop=1;jettySize=auto;html=1;entryX=1;entryY=0.5;entryDx=0;entryDy=0;" parent="1" source="J-dgUN1kn7ifCtPCbYIG-22" target="J-dgUN1kn7ifCtPCbYIG-27" edge="1">
                    <mxGeometry relative="1" as="geometry"/>
                </mxCell>
                <mxCell id="J-dgUN1kn7ifCtPCbYIG-22" value="Display &quot;Your account has been blocked&quot;" style="shape=parallelogram;perimeter=parallelogramPerimeter;whiteSpace=wrap;html=1;fixedSize=1;" parent="1" vertex="1">
                    <mxGeometry x="283.75" y="425" width="167.5" height="55" as="geometry"/>
                </mxCell>
                <mxCell id="J-dgUN1kn7ifCtPCbYIG-25" value="End" style="rounded=1;whiteSpace=wrap;html=1;" parent="1" vertex="1">
                    <mxGeometry x="45" y="530" width="80" height="40" as="geometry"/>
                </mxCell>
                <mxCell id="J-dgUN1kn7ifCtPCbYIG-29" value="" style="edgeStyle=orthogonalEdgeStyle;rounded=0;orthogonalLoop=1;jettySize=auto;html=1;" parent="1" source="J-dgUN1kn7ifCtPCbYIG-27" target="J-dgUN1kn7ifCtPCbYIG-25" edge="1">
                    <mxGeometry relative="1" as="geometry"/>
                </mxCell>
                <mxCell id="J-dgUN1kn7ifCtPCbYIG-27" value="Block Account" style="whiteSpace=wrap;html=1;" parent="1" vertex="1">
                    <mxGeometry x="215" y="520" width="120" height="60" as="geometry"/>
                </mxCell>
            </root>
        </mxGraphModel>
    </diagram>
</mxfile>